<mxfile><diagram name="ERD"><mxGraphModel><root><mxCell id="0" /><mxCell id="1" parent="0" /><mxCell id="2" value="&lt;b&gt;Users&lt;/b&gt;&lt;br&gt;&lt;i&gt;(DB1.dbo.user)&lt;/i&gt;" style="shape=swimlane;startSize=40;swimlaneLine=1;html=1;whiteSpace=wrap;" vertex="1" parent="1"><mxGeometry x="40" y="40" width="160" height="100" as="geometry" /></mxCell><mxCell id="3" value="id" style="text;html=1;align=left;verticalAlign=middle;spacingLeft=4;" vertex="1" parent="2"><mxGeometry x="0" y="40" width="160" height="20" as="geometry" /></mxCell><mxCell id="4" value="username" style="text;html=1;align=left;verticalAlign=middle;spacingLeft=4;" vertex="1" parent="2"><mxGeometry x="0" y="60" width="160" height="20" as="geometry" /></mxCell><mxCell id="5" value="email" style="text;html=1;align=left;verticalAlign=middle;spacingLeft=4;" vertex="1" parent="2"><mxGeometry x="0" y="80" width="160" height="20" as="geometry" /></mxCell><mxCell id="6" value="&lt;b&gt;Orders&lt;/b&gt;&lt;br&gt;&lt;i&gt;(DB2.sales.orders)&lt;/i&gt;" style="shape=swimlane;startSize=40;swimlaneLine=1;html=1;whiteSpace=wrap;" vertex="1" parent="1"><mxGeometry x="260" y="40" width="160" height="120" as="geometry" /></mxCell><mxCell id="7" value="order_id" style="text;html=1;align=left;verticalAlign=middle;spacingLeft=4;" vertex="1" parent="6"><mxGeometry x="0" y="40" width="160" height="20" as="geometry" /></mxCell><mxCell id="8" value="user_id" style="text;html=1;align=left;verticalAlign=middle;spacingLeft=4;" vertex="1" parent="6"><mxGeometry x="0" y="60" width="160" height="20" as="geometry" /></mxCell><mxCell id="9" value="amount" style="text;html=1;align=left;verticalAlign=middle;spacingLeft=4;" vertex="1" parent="6"><mxGeometry x="0" y="80" width="160" height="20" as="geometry" /></mxCell><mxCell id="10" value="date" style="text;html=1;align=left;verticalAlign=middle;spacingLeft=4;" vertex="1" parent="6"><mxGeometry x="0" y="100" width="160" height="20" as="geometry" /></mxCell><mxCell id="11" value="&lt;b&gt;Products&lt;/b&gt;" style="shape=swimlane;startSize=40;swimlaneLine=1;html=1;whiteSpace=wrap;" vertex="1" parent="1"><mxGeometry x="480" y="40" width="160" height="100" as="geometry" /></mxCell><mxCell id="12" value="product_id" style="text;html=1;align=left;verticalAlign=middle;spacingLeft=4;" vertex="1" parent="11"><mxGeometry x="0" y="40" width="160" height="20" as="geometry" /></mxCell><mxCell id="13" value="name" style="text;html=1;align=left;verticalAlign=middle;spacingLeft=4;" vertex="1" parent="11"><mxGeometry x="0" y="60" width="160" height="20" as="geometry" /></mxCell><mxCell id="14" value="price" style="text;html=1;align=left;verticalAlign=middle;spacingLeft=4;" vertex="1" parent="11"><mxGeometry x="0" y="80" width="160" height="20" as="geometry" /></mxCell></root></mxGraphModel></diagram></mxfile>